<svg width="20" height="18" viewBox="0 0 20 18" fill="none" xmlns="http://www.w3.org/2000/svg">
<g clip-path="url(#clip0_126_377)">
<path d="M8.62175 8.95926L14.5928 14.6485C14.6924 14.7435 14.8248 14.7965 14.9625 14.7965C15.1001 14.7965 15.2325 14.7435 15.3321 14.6485L15.3385 14.6421C15.387 14.5961 15.4256 14.5407 15.452 14.4792C15.4783 14.4178 15.4919 14.3516 15.4919 14.2848C15.4919 14.2179 15.4783 14.1518 15.452 14.0904C15.4256 14.0289 15.387 13.9735 15.3385 13.9275L9.71567 8.57034L15.3385 3.21534C15.387 3.16929 15.4256 3.11387 15.452 3.05244C15.4783 2.99102 15.4919 2.92487 15.4919 2.85802C15.4919 2.79117 15.4783 2.72501 15.452 2.66359C15.4256 2.60216 15.387 2.54674 15.3385 2.50069L15.3321 2.49427C15.2325 2.39929 15.1001 2.3463 14.9625 2.3463C14.8248 2.3463 14.6924 2.39929 14.5928 2.49427L8.62175 8.18355C8.56923 8.23358 8.52743 8.29376 8.49886 8.36043C8.4703 8.4271 8.45557 8.49888 8.45557 8.57141C8.45557 8.64394 8.4703 8.71572 8.49886 8.78239C8.52743 8.84906 8.56923 8.90923 8.62175 8.95926Z" fill="#D2F24F"/>
<path d="M0.049968 8.95926L6.02104 14.6485C6.12067 14.7435 6.25303 14.7965 6.39068 14.7965C6.52833 14.7965 6.66069 14.7435 6.76032 14.6485L6.76675 14.6421C6.81522 14.5961 6.85381 14.5407 6.88018 14.4792C6.90656 14.4178 6.92015 14.3516 6.92015 14.2848C6.92015 14.2179 6.90656 14.1518 6.88018 14.0904C6.85381 14.0289 6.81522 13.9735 6.76675 13.9275L1.1439 8.57034L6.76675 3.21534C6.81522 3.16929 6.85381 3.11387 6.88018 3.05244C6.90656 2.99102 6.92015 2.92487 6.92015 2.85802C6.92015 2.79117 6.90656 2.72501 6.88018 2.66359C6.85381 2.60216 6.81522 2.54674 6.76675 2.50069L6.76032 2.49427C6.66069 2.39929 6.52833 2.3463 6.39068 2.3463C6.25303 2.3463 6.12067 2.39929 6.02104 2.49427L0.049968 8.18355C-0.00254519 8.23358 -0.0443514 8.29376 -0.0729165 8.36043C-0.101482 8.4271 -0.116211 8.49888 -0.116211 8.57141C-0.116211 8.64394 -0.101482 8.71572 -0.0729165 8.78239C-0.0443514 8.84906 -0.00254519 8.90923 0.049968 8.95926Z" fill="#D2F24F"/>
</g>
<defs>
<clipPath id="clip0_126_377">
<rect width="17.1429" height="20" fill="white" transform="matrix(0 -1 1 0 0 17.1429)"/>
</clipPath>
</defs>
</svg>
