<svg width="8" height="11" viewBox="0 0 8 11" fill="none" xmlns="http://www.w3.org/2000/svg">
<path d="M3.96171 0.5C2.05056 0.5 0.5 1.97579 0.5 3.79343C0.5 5.88488 2.80781 9.19923 3.6552 10.344C3.69038 10.3923 3.73648 10.4316 3.78975 10.4588C3.84302 10.4859 3.90194 10.5 3.96171 10.5C4.02148 10.5 4.0804 10.4859 4.13367 10.4588C4.18694 10.4316 4.23304 10.3923 4.26822 10.344C5.11561 9.19971 7.42342 5.88657 7.42342 3.79343C7.42342 1.97579 5.87286 0.5 3.96171 0.5Z" stroke="#99B81B" stroke-opacity="0.28" stroke-linecap="round" stroke-linejoin="round"/>
<path d="M3.96152 5.11561C4.5988 5.11561 5.11542 4.59899 5.11542 3.9617C5.11542 3.32442 4.5988 2.8078 3.96152 2.8078C3.32424 2.8078 2.80762 3.32442 2.80762 3.9617C2.80762 4.59899 3.32424 5.11561 3.96152 5.11561Z" stroke="#99B81B" stroke-opacity="0.28" stroke-linecap="round" stroke-linejoin="round"/>
</svg>
