<svg width="35" height="35" viewBox="0 0 35 35" fill="none" xmlns="http://www.w3.org/2000/svg">
<path d="M17.4998 2.9165C14.6155 2.9165 11.796 3.7718 9.39778 5.37424C6.99956 6.97668 5.13038 9.25428 4.0266 11.919C2.92282 14.5838 2.63402 17.516 3.19673 20.3449C3.75943 23.1738 5.14835 25.7723 7.18787 27.8118C9.22739 29.8513 11.8259 31.2403 14.6548 31.803C17.4837 32.3657 20.4159 32.0769 23.0806 30.9731C25.7454 29.8693 28.023 28.0001 29.6254 25.6019C31.2279 23.2037 32.0832 20.3841 32.0832 17.4998C32.0832 15.5847 31.706 13.6884 30.9731 11.919C30.2402 10.1497 29.166 8.54205 27.8118 7.18786C26.4576 5.83368 24.85 4.75948 23.0806 4.02659C21.3113 3.29371 19.415 2.9165 17.4998 2.9165ZM14.5832 24.0623V10.9373L23.3332 17.4998L14.5832 24.0623Z" fill="white"/>
</svg>
